<svg xmlns="http://www.w3.org/2000/svg" viewBox="0 0 512 512">
  <defs>
    <linearGradient id="grad" x1="0%" y1="0%" x2="100%" y2="100%">
      <stop offset="0%" style="stop-color:#3B82F6;stop-opacity:1" />
      <stop offset="100%" style="stop-color:#8B5CF6;stop-opacity:1" />
    </linearGradient>
  </defs>
  <rect width="512" height="512" rx="102" fill="url(#grad)"/>
  <g fill="white">
    <!-- Book/Journal shape -->
    <path d="M128 96 C128 80 140 68 156 68 L356 68 C372 68 384 80 384 96 L384 416 C384 432 372 444 356 444 L156 444 C140 444 128 432 128 416 Z" opacity="0.95"/>
    <!-- Spine -->
    <rect x="128" y="68" width="24" height="376" fill="white" opacity="0.3"/>
    <!-- Lines representing text -->
    <rect x="176" y="120" width="160" height="16" rx="4" fill="#3B82F6" opacity="0.6"/>
    <rect x="176" y="152" width="120" height="16" rx="4" fill="#3B82F6" opacity="0.5"/>
    <rect x="176" y="184" width="140" height="16" rx="4" fill="#3B82F6" opacity="0.4"/>
    <rect x="176" y="232" width="160" height="16" rx="4" fill="#8B5CF6" opacity="0.6"/>
    <rect x="176" y="264" width="100" height="16" rx="4" fill="#8B5CF6" opacity="0.5"/>
    <rect x="176" y="296" width="130" height="16" rx="4" fill="#8B5CF6" opacity="0.4"/>
    <!-- Sparkle/AI indicator -->
    <circle cx="340" cy="380" r="24" fill="#3B82F6"/>
    <path d="M340 360 L344 376 L360 380 L344 384 L340 400 L336 384 L320 380 L336 376 Z" fill="white"/>
  </g>
</svg>
